<?xml version="1.0" encoding="utf-8"?>
<svg version="1.1" xmlns="http://www.w3.org/2000/svg" x="0px" y="0px"
	 viewBox="0 0 81.4 40" style="enable-background:new 0 0 81.4 40;" xml:space="preserve">
	<path fill="#FF0000" d="M25.4,13.8c-0.3-1.1-1.2-2-2.3-2.3C21.1,11,13,11,13,11s-8.1,0-10.1,0.5 c-1.1,0.3-2,1.2-2.3,2.3C0,15.8,0,20,0,20s0,4.2,0.5,6.2c0.3,1.1,1.2,2,2.3,2.3C4.8,29,12.9,29,12.9,29S21,29,23,28.5 c1.1-0.3,2-1.2,2.3-2.3C26,24.2,26,20,26,20S26,15.8,25.4,13.8z"/>
	<polygon fill="#FFFFFF" points="10.4,23.9 17.1,20 10.4,16.1"/>
	<path d="M37.7,27.4c-0.5-0.3-0.9-0.9-1.1-1.6s-0.3-1.7-0.3-2.9v-1.7c0-1.2,0.1-2.2,0.4-3s0.6-1.3,1.2-1.6 c0.5-0.3,1.2-0.5,2.1-0.5c0.8,0,1.5,0.2,2,0.5s0.9,0.9,1.1,1.6c0.2,0.7,0.4,1.7,0.4,2.9v1.7c0,1.2-0.1,2.2-0.3,2.9 s-0.6,1.3-1.1,1.6c-0.5,0.3-1.2,0.5-2.1,0.5C38.9,28,38.2,27.8,37.7,27.4z M40.5,25.7c0.1-0.4,0.2-1,0.2-1.8v-3.5 c0-0.8-0.1-1.4-0.2-1.8c-0.1-0.4-0.4-0.6-0.8-0.6c-0.3,0-0.6,0.2-0.7,0.6c-0.1,0.4-0.2,1-0.2,1.8v3.5c0,0.8,0.1,1.4,0.2,1.8 c0.1,0.4,0.4,0.6,0.7,0.6C40.2,26.2,40.4,26,40.5,25.7z"/>
	<path d="M77.1,22.9v0.6c0,0.7,0,1.3,0.1,1.6c0,0.4,0.1,0.6,0.3,0.8c0.1,0.2,0.3,0.3,0.6,0.3c0.4,0,0.6-0.1,0.8-0.4 c0.1-0.3,0.2-0.8,0.2-1.5l2.2,0.1c0,0.1,0,0.2,0,0.4c0,1.1-0.3,1.8-0.9,2.4S79,28,78,28c-1.3,0-2.1-0.4-2.7-1.2 c-0.5-0.8-0.8-2-0.8-3.7v-2c0-1.7,0.3-3,0.8-3.7c0.5-0.8,1.4-1.2,2.7-1.2c0.9,0,1.6,0.2,2,0.5s0.8,0.8,1,1.5s0.3,1.6,0.3,2.8 v1.9L77.1,22.9L77.1,22.9z M77.4,18.2c-0.1,0.2-0.2,0.4-0.3,0.8S77,19.9,77,20.7v0.8h2v-0.8c0-0.7,0-1.3-0.1-1.7 c-0.1-0.4-0.1-0.6-0.3-0.8C78.5,18,78.3,18,78,18C77.7,17.9,77.5,18,77.4,18.2z"/>
	<path d="M31.4,22.7l-2.9-10.5H31l1,4.8c0.3,1.2,0.5,2.2,0.6,3h0.1c0.1-0.6,0.3-1.6,0.6-3l1.1-4.8h2.5L34,22.7v5 h-2.5C31.4,27.8,31.4,22.7,31.4,22.7z"/>
	<path d="M51.6,16.4v11.4h-2l-0.2-1.4h-0.1c-0.5,1-1.3,1.6-2.4,1.6c-0.8,0-1.3-0.2-1.7-0.7S44.7,26,44.7,25v-8.5 h2.6v8.4c0,0.5,0.1,0.9,0.2,1.1s0.3,0.3,0.6,0.3c0.2,0,0.4-0.1,0.6-0.2s0.4-0.3,0.5-0.5v-9h2.4V16.4z"/>
	<path d="M64.7,16.4v11.4h-2l-0.2-1.4h-0.1c-0.5,1-1.3,1.6-2.4,1.6c-0.8,0-1.3-0.2-1.7-0.7S57.8,26,57.8,25v-8.5 h2.6v8.4c0,0.5,0.1,0.9,0.2,1.1s0.3,0.3,0.6,0.3c0.2,0,0.4-0.1,0.6-0.2s0.4-0.3,0.5-0.5v-9h2.4V16.4z"/>
	<path d="M58.6,14.3H56v13.5h-2.5V14.3H51v-2.1h7.6V14.3L58.6,14.3z"/>
	<path d="M73.2,18.2c-0.2-0.7-0.4-1.2-0.8-1.6c-0.3-0.3-0.8-0.5-1.4-0.5c-0.5,0-0.9,0.1-1.3,0.4s-0.7,0.6-0.9,1l0,0v-6h-2.5 v16.1h2.1l0.3-1.1h0.1c0.2,0.4,0.5,0.7,0.9,0.9c0.4,0.2,0.8,0.3,1.3,0.3c0.9,0,1.5-0.4,1.9-1.2c0.4-0.8,0.6-2,0.6-3.7V21 C73.4,19.9,73.4,18.9,73.2,18.2z M70.9,22.9c0,0.8,0,1.5-0.1,1.9c-0.1,0.5-0.2,0.8-0.3,1s-0.4,0.3-0.6,0.3s-0.4,0-0.6-0.1 s-0.3-0.2-0.4-0.4v-6.5c0.1-0.3,0.2-0.6,0.4-0.8c0.2-0.2,0.4-0.3,0.7-0.3c0.3,0,0.5,0.1,0.6,0.3c0.1,0.2,0.2,0.5,0.3,1 c0.1,0.5,0.1,1.2,0.1,2.1L70.9,22.9L70.9,22.9L70.9,22.9z"/>
</svg>
