<svg viewBox="0 0 48 48" xmlns="http://www.w3.org/2000/svg">
  <path d="M45.08 13.34a5.53 5.53 0 00-3.89-3.915C37.76 8.5 24 8.5 24 8.5s-13.76 0-17.19.925a5.53 5.53 0 00-3.89 3.915C2 16.795 2 24 2 24s0 7.205.92 10.66a5.53 5.53 0 003.89 3.915C10.24 39.5 24 39.5 24 39.5s13.76 0 17.19-.925a5.53 5.53 0 003.89-3.915C46 31.205 46 24 46 24s0-7.205-.92-10.66z"
        fill="#F44336"/>
  <path d="M10 15v8h10v-8h2v18h-2v-8H10v8H8V15h2zm22 0a9 9 0 010 18h-6V15h6zm0 2h-4v14h4a7 7 0 000-14z"
        fill="white"/>
</svg>